<svg xmlns="http://www.w3.org/2000/svg" width="588" height="46.58" viewBox="0 0 588 86.58">
  <title>connected-pictures</title>
  <g id="Layer_2" data-name="Layer 2">
    <g id="Layer_1-2" data-name="Layer 1">
      <g>
        <g id="CP_LOGO_STACKED_rgb_white" data-name="CP LOGO STACKED rgb white">
          <g id="Group_193" data-name="Group 193">
            <g id="Group_191" data-name="Group 191">
              <path class="connected-logo-path "id="Path_312" data-name="Path 312" d="M312.17,10.66a14.49,14.49,0,0,0-13.23-8,14.91,14.91,0,0,0,0,29.81,14.49,14.49,0,0,0,13.23-8h3.07A17.9,17.9,0,0,1,281,17.48a17.89,17.89,0,0,1,34.2-7h-3.08Z" fill="#fff"/>
              <path class="connected-logo-path "id="Path_313" data-name="Path 313" d="M339.57.11a17.66,17.66,0,0,1,17.91,17.4v.1a17.92,17.92,0,0,1-35.82,0A17.64,17.64,0,0,1,339.46.11Zm0,32.34a14.9,14.9,0,1,0-.15,0Z" fill="#fff"/>
              <path class="connected-logo-path "id="Path_314" data-name="Path 314" d="M394.09,34.45h-2.4L369,6V34.45h-2.81V.77h2.27l22.72,28.47h2.94Z" fill="#fff"/>
              <path class="connected-logo-path "id="Path_315" data-name="Path 315" d="M419.35,34.45H417L394.23,6.12h-2.94V.77h2.27l22.72,28.47V.77h2.94Z" fill="#fff"/>
              <path class="connected-logo-path "id="Path_316" data-name="Path 316" d="M429.91.77h21.78V3.45H432.85V16.54h16.44v2.53H432.85V31.9H452v2.54h-22Z" fill="#fff"/>
              <path class="connected-logo-path "id="Path_317" data-name="Path 317" d="M487.9,10.66a14.49,14.49,0,0,0-13.23-8,14.91,14.91,0,0,0,0,29.81,14.49,14.49,0,0,0,13.23-8H491a17.9,17.9,0,0,1-34.2-6.95,17.89,17.89,0,0,1,34.2-7h-3.08Z" fill="#fff"/>
              <path class="connected-logo-path "id="Path_318" data-name="Path 318" d="M507,3.45H495.79V.77h25.39V3.31H510V34.45H507Z" fill="#fff"/>
              <path class="connected-logo-path "id="Path_319" data-name="Path 319" d="M528.53.77h21.78V3.45H531.47V16.54h16.44v2.53H531.47V31.9h19.11v2.54H528.53Z" fill="#fff"/>
              <path class="connected-logo-path "id="Path_320" data-name="Path 320" d="M558.6.77h11.89C580.65.77,588,6.92,588,17.61c0,10-6.15,16.84-17.37,16.84h-12Zm11.89,31.14c9.36,0,14.57-5.48,14.57-14.17,0-8.28-4.8-14.29-14.57-14.29h-8.82V31.91Z" fill="#fff"/>
            </g>
            <g id="Group_192" data-name="Group 192">
              <path class="connected-logo-path "id="Path_321" data-name="Path 321" d="M286.38,73.47v12.3h-2.94V52.09h13.5a10.42,10.42,0,0,1,10.82,10c0,.22,0,.45,0,.67a10.32,10.32,0,0,1-9.93,10.69c-.26,0-.51,0-.77,0Zm0-2.54h10.56a7.76,7.76,0,0,0,7.89-7.64v-.38a7.88,7.88,0,0,0-7.6-8.14H286.52Z" fill="#fff"/>
              <path class="connected-logo-path "id="Path_322" data-name="Path 322" d="M315.52,52.09h2.94V85.76h-2.94Z" fill="#fff"/>
              <path class="connected-logo-path "id="Path_323" data-name="Path 323" d="M358.28,62a14.51,14.51,0,0,0-13.23-8,14.9,14.9,0,0,0,0,29.8,14.51,14.51,0,0,0,13.23-8h3.06a17.51,17.51,0,1,1,0-13.9l-3.07.14Z" fill="#fff"/>
              <path class="connected-logo-path "id="Path_324" data-name="Path 324" d="M377.39,54.76H366.16V52.22h25.26v2.54H380.2V85.9h-2.94V54.76Z" fill="#fff"/>
              <path class="connected-logo-path "id="Path_325" data-name="Path 325" d="M422.29,52.09h2.94V72.67a13.57,13.57,0,0,1-27.13.4v-21H401V72.67a10.7,10.7,0,0,0,21.38.8c0-.27,0-.54,0-.8V52.09Z" fill="#fff"/>
              <path class="connected-logo-path "id="Path_326" data-name="Path 326" d="M468.4,52.09h21.78v2.67H471.34v13.1h16.43v2.53H471.34V83.22h19.11v2.53H468.4Z" fill="#fff"/>
              <path class="connected-logo-path "id="Path_327" data-name="Path 327" d="M499,76.28c0,3.87,4.27,7.48,9.49,7.48,6.81,0,10.69-2.54,10.69-7.21,0-5-4.55-6.42-10.16-7.22-5.07-.67-11.89-1.47-11.89-8.15,0-4.94,3.07-9.76,12.3-9.76,6.95,0,11.23,3.88,11.23,9.23h-2.94c0-4-3.48-6.55-8.56-6.55-7.08,0-9.22,3.6-9.22,6.95,0,4.27,4.14,5.47,10.16,6.14,5.21.8,11.89,2.27,11.89,9.49,0,6.15-4.8,9.9-13.63,9.9-7.49,0-12.3-5.21-12.3-10.15l2.94-.14Z" fill="#fff"/>
              <path class="connected-logo-path "id="Path_328" data-name="Path 328" d="M452.09,72.27a9.71,9.71,0,0,0,7.75-9.9,10.11,10.11,0,0,0-9.9-10.32c-.31,0-.62,0-.92,0H434.85V85.76h2.94v-31h11.1a7.54,7.54,0,0,1,7.88,7.2c0,.18,0,.37,0,.55a7.44,7.44,0,0,1-7.25,7.63c-.21,0-.43,0-.64,0h-1.74v2.54h1.74L457,85.76h3.47Z" fill="#fff"/>
            </g>
          </g>
          <g id="Group_194" data-name="Group 194">
            <path class="connected-logo-path "id="Path_329" data-name="Path 329" d="M167.31,86.43h-6.14l-58-72.69H95.68V.37h6l58.28,73h7.49Z" fill="#fff"/>
            <path class="connected-logo-path "id="Path_330" data-name="Path 330" d="M191.37,55v31.4h-7.49V.37H218.5A26.59,26.59,0,0,1,246,26c0,.6,0,1.21,0,1.81A26.35,26.35,0,0,1,220.61,55c-.66,0-1.32,0-2,0Zm0-6.55H218.5a19.89,19.89,0,0,0,20.06-19.73c0-.28,0-.57,0-.85a20.36,20.36,0,0,0-19.75-21H191.37Z" fill="#fff"/>
            <path class="connected-logo-path "id="Path_331" data-name="Path 331" d="M76.17,60.24A35.54,35.54,0,0,1,44.1,79.49,36.92,36.92,0,0,1,18.3,69.06,36.19,36.19,0,0,1,44,7.19,35.25,35.25,0,0,1,76,26.57h8.15v-.14A42.84,42.84,0,0,0,44.1.11,43.85,43.85,0,0,0,13,12.67a42.6,42.6,0,0,0-1,60.24l1,1A44.07,44.07,0,0,0,44.1,86.43,43.25,43.25,0,0,0,84.32,60.24v-.13Z" fill="#fff"/>
          </g>
        </g>
        <rect width="588" height="86.58" fill="none"/>
      </g>
    </g>
  </g>
</svg>
