<svg xmlns="http://www.w3.org/2000/svg" viewBox="0 0 180.06 180.01">
  <defs>
    <!-- <style>
      .svg-icon-bkg {
        fill: white;
      }

      .svg-icon  {
        fill: pink;
      }
    </style> -->
  </defs>
  <title>linkedin3</title>
  <g id="Layer_2" data-name="Layer 2">
    <g id="Layer_1-2" data-name="Layer 1">
      <path class="svg-icon-bkg" d="M.06,0h180V180H0V2C0,1.33,0,.67.06,0Zm94.6,126.3v-2q0-13.5,0-27a10,10,0,0,1,3.46-8c3.83-3.33,12.08-3.58,14,4.17a21.84,21.84,0,0,1,.64,5.09c.07,8.61,0,17.22,0,25.83v1.92c5.27,0,10.32-.06,15.36,0,1.54,0,1.82-.52,1.81-1.92-.06-9.22,0-18.44-.07-27.66a39.85,39.85,0,0,0-.92-8.07c-2.83-12.7-16.3-19.06-27.6-12.92-2.49,1.36-4.49,3.63-6.71,5.47V75.08H77.82V126.3Zm-26.76,0V75.08H51.16v51.23ZM59.24,67.87c3.47.06,6.07-1,8-3.4a9,9,0,0,0-1-12.08c-3.48-3.21-9.85-3.27-13.33-.12a8.92,8.92,0,0,0,6.29,15.6Z"/>
      <path class="svg-icon " d="M94.66,126.3H77.82V75.08H94.65v6.24c2.22-1.84,4.22-4.11,6.71-5.47,11.3-6.14,24.77.22,27.6,12.92a39.85,39.85,0,0,1,.92,8.07c.11,9.22,0,18.44.07,27.66,0,1.4-.27,2-1.81,1.92-5-.1-10.09,0-15.36,0v-1.92c0-8.61,0-17.22,0-25.83a21.84,21.84,0,0,0-.64-5.09c-1.91-7.75-10.16-7.5-14-4.17a10,10,0,0,0-3.46,8q0,13.5,0,27Z"/>
      <path class="svg-icon" d="M67.9,126.31H51.16V75.08H67.9Z"/>
      <path class="svg-icon" d="M59.24,67.87A8.92,8.92,0,0,1,53,52.27c3.48-3.15,9.85-3.09,13.33.12a9,9,0,0,1,1,12.08C65.31,66.92,62.71,67.93,59.24,67.87Z"/>
    </g>
  </g>
</svg>
