<svg xmlns="http://www.w3.org/2000/svg" width="59.41" height="59.41" viewBox="0 0 59.41 59.41">
  <title>linkedin-solo</title>
  <g id="Layer_2" data-name="Layer 2">
    <g id="Layer_1-2" data-name="Layer 1" class="our-team-member--content-icon">
      <g>
        <g>
          <path id="Path_47" data-name="Path 47" d="M41.8,20.12a10.19,10.19,0,0,0-9.27,5.1v.1h-.06l.06-.1V20.84H22.25c.13,2.9,0,31,0,31H32.53V34.5A7.12,7.12,0,0,1,32.87,32a5.64,5.64,0,0,1,5.28-3.76c3.73,0,5.22,2.84,5.22,7V51.79H53.66V34C53.65,24.54,48.57,20.12,41.8,20.12Z"/>
          <path id="Path_48" data-name="Path 48" d="M11.47,5.92a5.36,5.36,0,1,0-.89,10.69,6.26,6.26,0,0,0,.75,0h.07a5.37,5.37,0,0,0,.9-10.7A5.75,5.75,0,0,0,11.47,5.92Z"/>
          <rect id="Rectangle_23" data-name="Rectangle 23" x="6.26" y="20.84" width="10.29" height="30.95"/>
        </g>
        <rect width="59.41" height="59.41" fill="none"/>
      </g>
    </g>
  </g>
</svg>
