<svg xmlns="http://www.w3.org/2000/svg" width="576" height="25.183" viewBox="0 0 576 25.183">
    <defs>
        <style>
            .cls-1{fill:#fff}
        </style>
    </defs>
    <g id="TBT_LOGO_rgb_black" transform="translate(0 .1)">
        <path id="Path_67" d="M12.454.192V23.36l2.839.275a.486.486 0 0 1 .549.549v.366H5.311v-.366a.486.486 0 0 1 .549-.549l2.84-.275V1.474l-6.41.092-1.1 3.662c-.092.366-.275.458-.641.458H0V.192L10.623.1zm8.791 0v5.494H20.7c-.366 0-.549-.183-.733-.549l-1.1-3.663h-4.49c-.641 0-.824-.733-.549-1.282z" class="cls-1" data-name="Path 67" transform="translate(0 -.017)"/>
        <path id="Path_68" d="M42.468 23.368l2.656.275a.605.605 0 0 1 .549.641v.366H35.6v-.366a.605.605 0 0 1 .549-.641l2.656-.275V1.39l-2.656-.275a.605.605 0 0 1-.549-.64V.2h10.073v.366a.605.605 0 0 1-.549.641l-2.656.275zm16.758 0l2.656.275a.605.605 0 0 1 .549.641v.366H52.358v-.366a.605.605 0 0 1 .549-.641l2.656-.275v-10.9H44.941a.8.8 0 0 1-.641-1.282h11.172V1.39l-2.656-.275a.486.486 0 0 1-.549-.549V.2H62.34v.366a.605.605 0 0 1-.549.641l-2.656.275v21.886z" class="cls-1" data-name="Path 68" transform="translate(-3 -.025)"/>
        <path id="Path_69" d="M84.768 23.368l9.432-.092 1.465-3.663c.183-.366.366-.549.733-.549h.366l-.458 5.4H77.9V24.1a.605.605 0 0 1 .549-.641l2.656-.275V1.207L78.449.933c-.458.183-.549 0-.549-.366V.2h17.491v5.22h-.366c-.366 0-.549-.183-.733-.549l-1.1-3.388-8.424-.093zm7.418-12.179L93.1 8.9c.183-.366.366-.549.733-.549h.183v6.776h-.183a.7.7 0 0 1-.733-.549l-.916-2.2h-5.22a.781.781 0 0 1-.549-1.282h5.769z" class="cls-1" data-name="Path 69" transform="translate(-6.564 -.025)"/>
        <path id="Path_70" d="M138.46 24.533h-6.96v-.183c0-.458.183-.549.549-.641l2.656-.366V1.365l-2.656-.275c-.366 0-.549-.275-.549-.641V.175h6.96zm2.381-12.179a.486.486 0 0 1-.549-.549.528.528 0 0 1 .549-.549c3.022 0 5.494-1.648 5.494-5.22 0-3.389-1.835-5.036-4.853-5.036h-1.007a.486.486 0 0 1-.549-.549c0-.366.183-.366.549-.458.366 0 1.465-.092 1.74-.092 5.861 0 8.242 2.106 8.059 6.41-.092 3.755-3.846 5.22-5.678 5.22 1.282 0 6.868.916 6.868 6.227 0 3.205-2.839 6.776-8.791 6.776a14.856 14.856 0 0 1-2.106-.092c-.458-.092-.733-.183-.733-.549s.183-.549.275-.549c1.832 0 7.509-.183 7.509-5.861s-6.045-5.037-6.777-5.129z" class="cls-1" data-name="Path 70" transform="translate(-11.08)"/>
        <path id="Path_71" d="M173.351 23.368l9.432-.092 1.465-3.663c.183-.366.366-.549.733-.549h.366l-.458 5.4H166.3V24.1a.605.605 0 0 1 .549-.641l2.656-.275V1.207l-2.656-.274a.605.605 0 0 1-.549-.641V.2h17.491v5.22h-.366c-.366 0-.549-.183-.733-.549l-1.1-3.388-8.242-.092zm7.417-12.179l.916-2.289c.183-.366.366-.549.733-.549h.183v6.776h-.183a.7.7 0 0 1-.733-.549l-.916-2.2h-5.22A.781.781 0 0 1 175 11.1h5.769z" class="cls-1" data-name="Path 71" transform="translate(-14.013 -.025)"/>
        <path id="Path_72" d="M207.815 5.411c1.007 0 1.465.366.733 1.923-2.472 6.227-2.93 7.509-6.044 15.384l2.747.916c.366.183.549.366.549.733v.183h-7.6v-.183a.7.7 0 0 1 .549-.733l2.289-.916zM221 23.268l2.289.366a.605.605 0 0 1 .549.641v.183h-9.707v-.183a.605.605 0 0 1 .549-.641l2.381-.366-3.205-8.425H208a.486.486 0 0 1-.549-.549v-.275a.486.486 0 0 1 .549-.549h5.311l-4.122-10.44a.992.992 0 0 1 0-1.007L209.921.1h1.648z" class="cls-1" data-name="Path 72" transform="translate(-16.701 -.017)"/>
        <path id="Path_73" d="M238.422 16.225V1.39l-2.473-.275a.486.486 0 0 1-.549-.549V.2h10.165v.366a.486.486 0 0 1-.549.549l-2.747.275v14.1c0 4.945 1.465 7.784 5.494 8.242.092 0 .183.275.183.366a.885.885 0 0 1-.824.824c-6.044-.272-8.7-2.927-8.7-8.697zm10.806 7.875c0-.183 0-.275.092-.366 4.762-.183 6.227-3.205 6.227-8.333V1.848l-2.473-.548a.7.7 0 0 1-.549-.733V.2h7.417v.366c0 .366-.183.549-.549.733l-2.2.549v13.92c0 3.205-.916 8.608-7.051 9.157a.843.843 0 0 1-.914-.825z" class="cls-1" data-name="Path 73" transform="translate(-19.835 -.025)"/>
        <path id="Path_74" d="M286.746.2v23.168l2.839.275a.486.486 0 0 1 .549.549v.366H279.6v-.366a.486.486 0 0 1 .549-.549l2.839-.275V1.482l-6.41.092-1.1 3.663a.7.7 0 0 1-.733.549h-.545V.292L284.823.2zm8.791 0v5.494h-.549c-.366 0-.549-.183-.733-.549l-1.1-3.663h-4.487c-.641 0-.824-.733-.55-1.282z" class="cls-1" data-name="Path 74" transform="translate(-23.104 -.025)"/>
        <path id="Path_75" d="M316.768 23.368l2.656.275a.605.605 0 0 1 .549.641v.366H309.9v-.366a.605.605 0 0 1 .549-.641l2.656-.275V1.39l-2.656-.275a.605.605 0 0 1-.549-.64V.2h10.073v.366a.605.605 0 0 1-.549.641l-2.656.275z" class="cls-1" data-name="Path 75" transform="translate(-26.112 -.025)"/>
        <path id="Path_76" d="M340.768 23.368l2.656.275a.605.605 0 0 1 .549.641v.366H333.9v-.366a.605.605 0 0 1 .549-.641l2.656-.275V1.39l-2.656-.275a.605.605 0 0 1-.549-.64V.2h17.674v5.22h-.366c-.366 0-.549-.183-.732-.549l-1.1-3.388-8.608-.092zm7.6-11.538l.916-2.2c.183-.366.366-.549.733-.549h.183v6.776h-.183a.7.7 0 0 1-.733-.549l-.916-2.289h-5.4a.781.781 0 0 1-.549-1.282h5.952z" class="cls-1" data-name="Path 76" transform="translate(-28.135 -.025)"/>
        <path id="Path_77" d="M368.613 16.225V1.39l-2.564-.275a.486.486 0 0 1-.549-.549V.2h10.165v.366a.486.486 0 0 1-.549.549l-2.747.275v14.1c0 4.945 1.465 7.784 5.495 8.242.092 0 .183.275.183.366a.885.885 0 0 1-.824.824c-6.045-.272-8.61-2.927-8.61-8.697zm10.806 7.875c0-.183 0-.275.092-.366 4.762-.183 6.227-3.205 6.227-8.333V1.848l-2.473-.548a.7.7 0 0 1-.549-.733V.2h7.418v.366c0 .366-.183.549-.549.733l-2.289.549v13.92c0 3.205-.916 8.608-7.051 9.157a.763.763 0 0 1-.826-.825z" class="cls-1" data-name="Path 77" transform="translate(-30.797 -.025)"/>
        <path id="Path_78" d="M408.288 1.39l-2.656-.275a.605.605 0 0 1-.549-.641V.2h10.073v.366a.605.605 0 0 1-.549.641l-2.656.275V23.46l9.157-.092 1.465-3.663c.183-.366.366-.549.733-.549h.366l-.458 5.4H404.9v-.366a.605.605 0 0 1 .549-.641l2.656-.275V1.39z" class="cls-1" data-name="Path 78" transform="translate(-34.117 -.025)"/>
        <path id="Path_79" d="M467.346.2v23.168l2.839.275a.486.486 0 0 1 .55.549v.366H460.2v-.366a.486.486 0 0 1 .549-.549l2.839-.275V1.482l-6.41.092-1.1 3.663a.7.7 0 0 1-.733.549h-.545V.292L465.423.2zm8.791 0v5.494h-.55c-.366 0-.549-.183-.733-.549l-1.1-3.663h-4.487c-.641 0-.824-.733-.549-1.282z" class="cls-1" data-name="Path 79" transform="translate(-38.322 -.025)"/>
        <path id="Path_80" d="M497.268 23.343l2.564.366c.366 0 .55.183.55.641v.275H490.4v-.183c0-.458.183-.549.549-.641l2.656-.366V1.457l-2.656-.275c-.366 0-.549-.275-.549-.641V.083h6.96v23.26zm1.923-11.63c3.938 0 6.41-1.74 6.41-5.494 0-3.571-1.648-5.22-5.311-5.22h-1.007a.528.528 0 0 1-.275-1.007 14.366 14.366 0 0 1 2.381-.092c5.861 0 8.242 2.2 8.242 6.227 0 3.571-2.656 6.135-6.593 6.135a3.434 3.434 0 0 1-.916-.092v.092c5.4.733 6.868 3.388 6.868 8.425 0 1.465.275 2.656.916 2.93a3.985 3.985 0 0 0 3.205-.183v.916a10.762 10.762 0 0 1-3.571.733c-2.473 0-3.938-1.282-4.4-3.022-.916-3.388 1.465-9.432-5.861-9.432h-.092a.486.486 0 0 1-.55-.549c.005-.18.188-.367.554-.367z" class="cls-1" data-name="Path 80" transform="translate(-41.321)"/>
        <path id="Path_81" d="M528.314 16.225V1.39l-2.564-.275a.486.486 0 0 1-.55-.549V.2h10.165v.366a.486.486 0 0 1-.55.549l-2.747.275v14.1c0 4.945 1.465 7.784 5.494 8.242.091 0 .183.275.183.366a.885.885 0 0 1-.824.824c-6.043-.272-8.607-2.927-8.607-8.697zm10.805 7.875c0-.183 0-.275.091-.366 4.762-.183 6.227-3.205 6.227-8.333V1.848l-2.472-.548c-.366-.183-.549-.366-.549-.733V.2h7.417v.366c0 .366-.183.549-.549.733l-2.289.549v13.92c0 3.205-.916 8.608-7.051 9.157a.763.763 0 0 1-.825-.825z" class="cls-1" data-name="Path 81" transform="translate(-44.254 -.025)"/>
        <path id="Path_82" d="M576.646.2v23.168l2.839.275a.486.486 0 0 1 .55.549v.366H569.5v-.366a.486.486 0 0 1 .55-.549l2.839-.275V1.482l-6.41.092-1.1 3.663a.7.7 0 0 1-.733.549h-.546V.292L574.722.2zm8.791 0v5.494h-.549c-.366 0-.549-.183-.732-.549l-1.1-3.663h-4.487c-.641 0-.824-.733-.549-1.282z" class="cls-1" data-name="Path 82" transform="translate(-47.531 -.025)"/>
        <path id="Path_83" d="M606.668 23.368l2.656.275a.605.605 0 0 1 .549.641v.366H599.8v-.366a.605.605 0 0 1 .55-.641l2.656-.275V1.39l-2.656-.275a.605.605 0 0 1-.55-.641V.2h10.073v.366a.605.605 0 0 1-.549.641l-2.656.275zm16.667 0l2.656.275a.605.605 0 0 1 .549.641v.366h-10.074v-.366a.605.605 0 0 1 .55-.641l2.656-.275v-10.9h-10.531a.8.8 0 0 1-.641-1.282h11.172V1.39l-2.656-.275a.605.605 0 0 1-.55-.641V.2h10.074v.366a.605.605 0 0 1-.549.641l-2.656.275z" class="cls-1" data-name="Path 83" transform="translate(-50.54 -.025)"/>
    </g>
</svg>
