<svg xmlns="http://www.w3.org/2000/svg" width="55.19" height="55.19" viewBox="0 0 55.19 55.19">
  <title>twitter-solo</title>
  <g id="Layer_2" data-name="Layer 2">
    <g id="Layer_1-2" data-name="Layer 1" class="our-team-member--content-icon">
      <g>
        <path id="Path_46" data-name="Path 46" d="M46.24,18.94c0,.42,0,.84,0,1.27A28,28,0,0,1,3.16,43.81a20.39,20.39,0,0,0,2.34.13,19.76,19.76,0,0,0,12.23-4.2A9.85,9.85,0,0,1,8.54,32.9a9.59,9.59,0,0,0,1.85.18A9.86,9.86,0,0,0,13,32.73a9.87,9.87,0,0,1-7.9-9.65V23a9.85,9.85,0,0,0,4.47,1.23A9.85,9.85,0,0,1,6.5,11,27.94,27.94,0,0,0,26.8,21.32a9.85,9.85,0,0,1,16.78-9,19.49,19.49,0,0,0,6.25-2.4,9.85,9.85,0,0,1-4.33,5.45,19.59,19.59,0,0,0,5.66-1.55A20.05,20.05,0,0,1,46.24,18.94Z"/>
        <rect width="55.19" height="55.19" fill="none"/>
      </g>
    </g>
  </g>
</svg>
