<svg xmlns="http://www.w3.org/2000/svg" 
  xmlns:xlink="http://www.w3.org/1999/xlink" width="108" height="108" viewBox="0 0 108 108">
  <defs>
    <clipPath id="clip-path">
      <rect width="108" height="108" fill="none" />
    </clipPath>
  </defs>
  <title>twitter</title>
  <g id="Layer_2" data-name="Layer 2">
    <g id="Layer_1-2" data-name="Layer 1">
      <g clip-path="url(#clip-path)">
        <g id="Component">
          <rect class="social-icon-svg-bkg" id="Rectangle_21" data-name="Rectangle 21" width="108" height="108" fill="#fff" />
          <path class="social-icon-svg-path" id="Path_46" data-name="Path 46" d="M73.09,42.71c0,.43,0,.85,0,1.28A28,28,0,0,1,30,67.58a20.44,20.44,0,0,0,2.35.14,19.78,19.78,0,0,0,12.23-4.2,9.88,9.88,0,0,1-9.2-6.84,10.44,10.44,0,0,0,1.85.17,9.8,9.8,0,0,0,2.59-.34,9.86,9.86,0,0,1-7.89-9.66v-.12A9.85,9.85,0,0,0,36.39,48a9.87,9.87,0,0,1-3-13.15A27.91,27.91,0,0,0,53.64,45.1a9.86,9.86,0,0,1,16.78-9,19.87,19.87,0,0,0,6.26-2.4,9.91,9.91,0,0,1-4.34,5.45A19.5,19.5,0,0,0,78,37.62,20,20,0,0,1,73.09,42.71Z" />
        </g>
      </g>
    </g>
  </g>
</svg>
