<svg xmlns="http://www.w3.org/2000/svg" viewBox="0 0 108.33 108">
  <defs>
    <!-- <style>
      .svg-icon-bkg {
        fill: blue;
      }

      .svg-icon {
        fill: #0f6;
      }
    </style> -->
  </defs>
  <title>Asset 4</title>
  <g id="Layer_2" data-name="Layer 2">
    <g id="Layer_1-2" data-name="Layer 1">
      <g>
        <path class="svg-icon-bkg" d="M108.33,108H0V0H108.33ZM31.86,47.06c.75-.44,1.31-.8,1.89-1.12,2.7-1.49,3.41-1.29,4.35,1.58,2,6.1,3.85,12.26,5.89,18.36a21.35,21.35,0,0,0,2.62,5.69c2.83,4,6.39,4.5,10.28,1.54A60.86,60.86,0,0,0,74.42,52.9c2.15-4.1,3.78-8.39,3.64-13.15a6.73,6.73,0,0,0-6.73-6.82,13.14,13.14,0,0,0-9.94,3.87,12.15,12.15,0,0,0-3.91,7.48c.76-.28,1.31-.51,1.87-.69,2.72-.9,4.69.49,4.67,3.34a4.76,4.76,0,0,1-.38,2.27c-1.78,3-3.53,6.13-5.58,9-1.26,1.76-2.32,1.54-3-.55-1-3-1.89-6.13-2.65-9.25-.89-3.65-1.36-7.43-2.44-11C48.71,33.3,46,32.23,42.17,34c-5,2.33-8.64,6.28-12.36,10.34Z"/>
        <path class="svg-icon " d="M31.86,47.06l-2.05-2.69c3.72-4.06,7.38-8,12.36-10.34,3.85-1.8,6.54-.73,7.77,3.35,1.08,3.59,1.55,7.37,2.44,11,.76,3.12,1.61,6.22,2.65,9.25.71,2.09,1.77,2.31,3,.55,2-2.87,3.8-6,5.58-9A4.76,4.76,0,0,0,64,46.93c0-2.85-1.95-4.24-4.67-3.34-.56.18-1.11.41-1.87.69a12.15,12.15,0,0,1,3.91-7.48,13.14,13.14,0,0,1,9.94-3.87,6.73,6.73,0,0,1,6.73,6.82c.14,4.76-1.49,9-3.64,13.15A60.86,60.86,0,0,1,56.89,73.11c-3.89,3-7.45,2.47-10.28-1.54A21.35,21.35,0,0,1,44,65.88c-2-6.1-3.88-12.26-5.89-18.36-.94-2.87-1.65-3.07-4.35-1.58C33.17,46.26,32.61,46.62,31.86,47.06Z"/>
      </g>
    </g>
  </g>
</svg>
